Coordinates
version=1
nRows=32
nColumns=12
inDegrees=yes

Units are S.I. units (second, meters, Newtons, ...)
Angles are in degrees

endheader
time	SC_y	SC_z	SC_x	AC_y	AC_z	AC_x	GH_y	GH_z	GH_yy	EL_x	PS_y
       0.0              -27.87          27.57           15.8           52.7          -19.3          -7.22          128.6          32.81         -164.4          60.68          37.43
   0.04471              -27.87          27.56           15.8           52.7         -19.29          -7.22          128.6          32.81         -164.4          60.68          37.44
   0.08941              -27.87          27.56          15.81           52.7         -19.29          -7.22          128.6           32.8         -164.3          60.68          37.46
    0.1341              -27.87          27.55          15.81           52.7         -19.29          -7.22          128.6           32.8         -164.3          60.68          37.48
    0.1788              -27.87          27.55          15.82           52.7         -19.29         -7.219          128.7           32.8         -164.3          60.68           37.5
    0.2235              -27.87          27.54          15.82          52.69         -19.29         -7.219          128.7          32.79         -164.2          60.68          37.53
    0.2682              -27.87          27.53          15.83          52.69         -19.28         -7.219          128.7          32.79         -164.2          60.68          37.55
    0.3129              -27.87          27.53          15.83          52.69         -19.28         -7.219          128.7          32.78         -164.2          60.68          37.58
    0.3576              -27.86          27.52          15.84          52.69         -19.28         -7.219          128.7          32.78         -164.1          60.68           37.6
    0.4023              -27.86          27.51          15.85          52.69         -19.28         -7.218          128.7          32.77         -164.1          60.68          37.63
    0.4471              -27.86           27.5          15.86          52.68         -19.27         -7.218          128.7          32.77         -164.0          60.68          37.66
    0.4918              -27.86          27.49          15.86          52.68         -19.27         -7.218          128.7          32.76         -164.0          60.68           37.7
    0.5365              -27.86          27.48          15.87          52.68         -19.27         -7.218          128.7          32.76         -163.9          60.68          37.73
    0.5812              -27.86          27.47          15.88          52.67         -19.26         -7.217          128.7          32.75         -163.9          60.68          37.77
    0.6259              -27.86          27.46          15.89          52.67         -19.26         -7.217          128.7          32.74         -163.8          60.68          37.82
    0.6706              -27.86          27.45           15.9          52.66         -19.26         -7.217          128.7          32.73         -163.7          60.68          37.86
    0.7153              -27.86          27.44          15.92          52.66         -19.25         -7.216          128.7          32.72         -163.7          60.68          37.91
      0.76              -27.86          27.42          15.93          52.66         -19.25         -7.216          128.7          32.72         -163.6          60.68          37.97
    0.8047              -27.86          27.41          15.94          52.65         -19.24         -7.215          128.7           32.7         -163.5          60.68          38.03
    0.8494              -27.86          27.39          15.96          52.64         -19.24         -7.215          128.7          32.69         -163.4          60.68          38.09
    0.8941              -27.86          27.37          15.98          52.64         -19.23         -7.214          128.7          32.68         -163.3          60.68          38.17
    0.9388              -27.86          27.35           16.0          52.63         -19.22         -7.214          128.7          32.67         -163.2          60.68          38.25
    0.9835              -27.86          27.33          16.02          52.62         -19.21         -7.213          128.7          32.65         -163.0          60.68          38.33
     1.028              -27.86           27.3          16.04          52.61          -19.2         -7.212          128.7          32.63         -162.9          60.68          38.43
     1.073              -27.85          27.27          16.07          52.61          -19.2         -7.211          128.7          32.62         -162.7          60.68          38.54
     1.118              -27.85          27.24           16.1          52.59         -19.18          -7.21          128.7          32.59         -162.6          60.68          38.66
     1.162              -27.85          27.21          16.13          52.58         -19.17         -7.209          128.7          32.57         -162.4          60.68           38.8
     1.207              -27.85          27.17          16.17          52.57         -19.16         -7.208          128.7          32.54         -162.1          60.68          38.95
     1.252              -27.85          27.12          16.21          52.55         -19.14         -7.207          128.7          32.52         -161.9          60.67          39.12
     1.296              -27.85          27.07          16.25          52.54         -19.13         -7.205          128.7          32.48         -161.6          60.67          39.31
     1.341              -27.84          27.01          16.31          52.52         -19.11         -7.203          128.7          32.44         -161.3          60.67          39.54
     1.386              -27.84          26.94          16.37          52.49         -19.08         -7.201          128.7           32.4         -160.9          60.67          39.79
